<?xml version="1.0" encoding="utf-8" standalone="no"?>
<!DOCTYPE svg PUBLIC "-//W3C//DTD SVG 1.1//EN"
  "http://www.w3.org/Graphics/SVG/1.1/DTD/svg11.dtd">
<svg height="1297.55625pt" version="1.1" viewBox="0 0 460.8 1297.55625" width="460.8pt" xmlns="http://www.w3.org/2000/svg" xmlns:xlink="http://www.w3.org/1999/xlink">
 <metadata>
  <rdf:RDF xmlns:cc="http://creativecommons.org/ns#" xmlns:dc="http://purl.org/dc/elements/1.1/" xmlns:rdf="http://www.w3.org/1999/02/22-rdf-syntax-ns#">
   <cc:Work>
    <dc:type rdf:resource="http://purl.org/dc/dcmitype/StillImage"/>
    <dc:date>2022-05-20T10:49:52.974154</dc:date>
    <dc:format>image/svg+xml</dc:format>
    <dc:creator>
     <cc:Agent>
      <dc:title>Matplotlib v3.4.2, https://matplotlib.org/</dc:title>
     </cc:Agent>
    </dc:creator>
   </cc:Work>
  </rdf:RDF>
 </metadata>
 <defs>
  <style type="text/css">*{stroke-linecap:butt;stroke-linejoin:round;}</style>
 </defs>
 <g id="figure_1">
  <g id="patch_1">
   <path d="M 0 1297.55625 
L 460.8 1297.55625 
L 460.8 0 
L 0 0 
z
" style="fill:#ffffff;"/>
  </g>
  <g id="axes_1">
   <g id="patch_2">
    <path d="M 7.2 477.317647 
L 453.6 477.317647 
L 453.6 151.2 
L 7.2 151.2 
z
" style="fill:#ffffff;"/>
   </g>
   <g id="matplotlib.axis_1">
    <g id="xtick_1">
     <g id="line2d_1">
      <defs>
       <path d="M 0 0 
L 0 3.5 
" id="m364e1d0840" style="stroke:#000000;stroke-width:0.8;"/>
      </defs>
      <g>
       <use style="stroke:#000000;stroke-width:0.8;" x="27.490909" xlink:href="#m364e1d0840" y="477.317647"/>
      </g>
     </g>
     <g id="text_1">
      <!-- 0 -->
      <g transform="translate(24.309659 491.916085)scale(0.1 -0.1)">
       <defs>
        <path d="M 2034 4250 
Q 1547 4250 1301 3770 
Q 1056 3291 1056 2328 
Q 1056 1369 1301 889 
Q 1547 409 2034 409 
Q 2525 409 2770 889 
Q 3016 1369 3016 2328 
Q 3016 3291 2770 3770 
Q 2525 4250 2034 4250 
z
M 2034 4750 
Q 2819 4750 3233 4129 
Q 3647 3509 3647 2328 
Q 3647 1150 3233 529 
Q 2819 -91 2034 -91 
Q 1250 -91 836 529 
Q 422 1150 422 2328 
Q 422 3509 836 4129 
Q 1250 4750 2034 4750 
z
" id="DejaVuSans-30" transform="scale(0.015625)"/>
       </defs>
       <use xlink:href="#DejaVuSans-30"/>
      </g>
     </g>
    </g>
    <g id="xtick_2">
     <g id="line2d_2">
      <g>
       <use style="stroke:#000000;stroke-width:0.8;" x="95.127273" xlink:href="#m364e1d0840" y="477.317647"/>
      </g>
     </g>
     <g id="text_2">
      <!-- 200 -->
      <g transform="translate(85.583523 491.916085)scale(0.1 -0.1)">
       <defs>
        <path d="M 1228 531 
L 3431 531 
L 3431 0 
L 469 0 
L 469 531 
Q 828 903 1448 1529 
Q 2069 2156 2228 2338 
Q 2531 2678 2651 2914 
Q 2772 3150 2772 3378 
Q 2772 3750 2511 3984 
Q 2250 4219 1831 4219 
Q 1534 4219 1204 4116 
Q 875 4013 500 3803 
L 500 4441 
Q 881 4594 1212 4672 
Q 1544 4750 1819 4750 
Q 2544 4750 2975 4387 
Q 3406 4025 3406 3419 
Q 3406 3131 3298 2873 
Q 3191 2616 2906 2266 
Q 2828 2175 2409 1742 
Q 1991 1309 1228 531 
z
" id="DejaVuSans-32" transform="scale(0.015625)"/>
       </defs>
       <use xlink:href="#DejaVuSans-32"/>
       <use x="63.623047" xlink:href="#DejaVuSans-30"/>
       <use x="127.246094" xlink:href="#DejaVuSans-30"/>
      </g>
     </g>
    </g>
    <g id="xtick_3">
     <g id="line2d_3">
      <g>
       <use style="stroke:#000000;stroke-width:0.8;" x="162.763636" xlink:href="#m364e1d0840" y="477.317647"/>
      </g>
     </g>
     <g id="text_3">
      <!-- 400 -->
      <g transform="translate(153.219886 491.916085)scale(0.1 -0.1)">
       <defs>
        <path d="M 2419 4116 
L 825 1625 
L 2419 1625 
L 2419 4116 
z
M 2253 4666 
L 3047 4666 
L 3047 1625 
L 3713 1625 
L 3713 1100 
L 3047 1100 
L 3047 0 
L 2419 0 
L 2419 1100 
L 313 1100 
L 313 1709 
L 2253 4666 
z
" id="DejaVuSans-34" transform="scale(0.015625)"/>
       </defs>
       <use xlink:href="#DejaVuSans-34"/>
       <use x="63.623047" xlink:href="#DejaVuSans-30"/>
       <use x="127.246094" xlink:href="#DejaVuSans-30"/>
      </g>
     </g>
    </g>
    <g id="xtick_4">
     <g id="line2d_4">
      <g>
       <use style="stroke:#000000;stroke-width:0.8;" x="230.4" xlink:href="#m364e1d0840" y="477.317647"/>
      </g>
     </g>
     <g id="text_4">
      <!-- 600 -->
      <g transform="translate(220.85625 491.916085)scale(0.1 -0.1)">
       <defs>
        <path d="M 2113 2584 
Q 1688 2584 1439 2293 
Q 1191 2003 1191 1497 
Q 1191 994 1439 701 
Q 1688 409 2113 409 
Q 2538 409 2786 701 
Q 3034 994 3034 1497 
Q 3034 2003 2786 2293 
Q 2538 2584 2113 2584 
z
M 3366 4563 
L 3366 3988 
Q 3128 4100 2886 4159 
Q 2644 4219 2406 4219 
Q 1781 4219 1451 3797 
Q 1122 3375 1075 2522 
Q 1259 2794 1537 2939 
Q 1816 3084 2150 3084 
Q 2853 3084 3261 2657 
Q 3669 2231 3669 1497 
Q 3669 778 3244 343 
Q 2819 -91 2113 -91 
Q 1303 -91 875 529 
Q 447 1150 447 2328 
Q 447 3434 972 4092 
Q 1497 4750 2381 4750 
Q 2619 4750 2861 4703 
Q 3103 4656 3366 4563 
z
" id="DejaVuSans-36" transform="scale(0.015625)"/>
       </defs>
       <use xlink:href="#DejaVuSans-36"/>
       <use x="63.623047" xlink:href="#DejaVuSans-30"/>
       <use x="127.246094" xlink:href="#DejaVuSans-30"/>
      </g>
     </g>
    </g>
    <g id="xtick_5">
     <g id="line2d_5">
      <g>
       <use style="stroke:#000000;stroke-width:0.8;" x="298.036364" xlink:href="#m364e1d0840" y="477.317647"/>
      </g>
     </g>
     <g id="text_5">
      <!-- 800 -->
      <g transform="translate(288.492614 491.916085)scale(0.1 -0.1)">
       <defs>
        <path d="M 2034 2216 
Q 1584 2216 1326 1975 
Q 1069 1734 1069 1313 
Q 1069 891 1326 650 
Q 1584 409 2034 409 
Q 2484 409 2743 651 
Q 3003 894 3003 1313 
Q 3003 1734 2745 1975 
Q 2488 2216 2034 2216 
z
M 1403 2484 
Q 997 2584 770 2862 
Q 544 3141 544 3541 
Q 544 4100 942 4425 
Q 1341 4750 2034 4750 
Q 2731 4750 3128 4425 
Q 3525 4100 3525 3541 
Q 3525 3141 3298 2862 
Q 3072 2584 2669 2484 
Q 3125 2378 3379 2068 
Q 3634 1759 3634 1313 
Q 3634 634 3220 271 
Q 2806 -91 2034 -91 
Q 1263 -91 848 271 
Q 434 634 434 1313 
Q 434 1759 690 2068 
Q 947 2378 1403 2484 
z
M 1172 3481 
Q 1172 3119 1398 2916 
Q 1625 2713 2034 2713 
Q 2441 2713 2670 2916 
Q 2900 3119 2900 3481 
Q 2900 3844 2670 4047 
Q 2441 4250 2034 4250 
Q 1625 4250 1398 4047 
Q 1172 3844 1172 3481 
z
" id="DejaVuSans-38" transform="scale(0.015625)"/>
       </defs>
       <use xlink:href="#DejaVuSans-38"/>
       <use x="63.623047" xlink:href="#DejaVuSans-30"/>
       <use x="127.246094" xlink:href="#DejaVuSans-30"/>
      </g>
     </g>
    </g>
    <g id="xtick_6">
     <g id="line2d_6">
      <g>
       <use style="stroke:#000000;stroke-width:0.8;" x="365.672727" xlink:href="#m364e1d0840" y="477.317647"/>
      </g>
     </g>
     <g id="text_6">
      <!-- 1000 -->
      <g transform="translate(352.947727 491.916085)scale(0.1 -0.1)">
       <defs>
        <path d="M 794 531 
L 1825 531 
L 1825 4091 
L 703 3866 
L 703 4441 
L 1819 4666 
L 2450 4666 
L 2450 531 
L 3481 531 
L 3481 0 
L 794 0 
L 794 531 
z
" id="DejaVuSans-31" transform="scale(0.015625)"/>
       </defs>
       <use xlink:href="#DejaVuSans-31"/>
       <use x="63.623047" xlink:href="#DejaVuSans-30"/>
       <use x="127.246094" xlink:href="#DejaVuSans-30"/>
       <use x="190.869141" xlink:href="#DejaVuSans-30"/>
      </g>
     </g>
    </g>
    <g id="xtick_7">
     <g id="line2d_7">
      <g>
       <use style="stroke:#000000;stroke-width:0.8;" x="433.309091" xlink:href="#m364e1d0840" y="477.317647"/>
      </g>
     </g>
     <g id="text_7">
      <!-- 1200 -->
      <g transform="translate(420.584091 491.916085)scale(0.1 -0.1)">
       <use xlink:href="#DejaVuSans-31"/>
       <use x="63.623047" xlink:href="#DejaVuSans-32"/>
       <use x="127.246094" xlink:href="#DejaVuSans-30"/>
       <use x="190.869141" xlink:href="#DejaVuSans-30"/>
      </g>
     </g>
    </g>
    <g id="text_8">
     <!-- time (ms) -->
     <g transform="translate(206.138281 505.59421)scale(0.1 -0.1)">
      <defs>
       <path d="M 1172 4494 
L 1172 3500 
L 2356 3500 
L 2356 3053 
L 1172 3053 
L 1172 1153 
Q 1172 725 1289 603 
Q 1406 481 1766 481 
L 2356 481 
L 2356 0 
L 1766 0 
Q 1100 0 847 248 
Q 594 497 594 1153 
L 594 3053 
L 172 3053 
L 172 3500 
L 594 3500 
L 594 4494 
L 1172 4494 
z
" id="DejaVuSans-74" transform="scale(0.015625)"/>
       <path d="M 603 3500 
L 1178 3500 
L 1178 0 
L 603 0 
L 603 3500 
z
M 603 4863 
L 1178 4863 
L 1178 4134 
L 603 4134 
L 603 4863 
z
" id="DejaVuSans-69" transform="scale(0.015625)"/>
       <path d="M 3328 2828 
Q 3544 3216 3844 3400 
Q 4144 3584 4550 3584 
Q 5097 3584 5394 3201 
Q 5691 2819 5691 2113 
L 5691 0 
L 5113 0 
L 5113 2094 
Q 5113 2597 4934 2840 
Q 4756 3084 4391 3084 
Q 3944 3084 3684 2787 
Q 3425 2491 3425 1978 
L 3425 0 
L 2847 0 
L 2847 2094 
Q 2847 2600 2669 2842 
Q 2491 3084 2119 3084 
Q 1678 3084 1418 2786 
Q 1159 2488 1159 1978 
L 1159 0 
L 581 0 
L 581 3500 
L 1159 3500 
L 1159 2956 
Q 1356 3278 1631 3431 
Q 1906 3584 2284 3584 
Q 2666 3584 2933 3390 
Q 3200 3197 3328 2828 
z
" id="DejaVuSans-6d" transform="scale(0.015625)"/>
       <path d="M 3597 1894 
L 3597 1613 
L 953 1613 
Q 991 1019 1311 708 
Q 1631 397 2203 397 
Q 2534 397 2845 478 
Q 3156 559 3463 722 
L 3463 178 
Q 3153 47 2828 -22 
Q 2503 -91 2169 -91 
Q 1331 -91 842 396 
Q 353 884 353 1716 
Q 353 2575 817 3079 
Q 1281 3584 2069 3584 
Q 2775 3584 3186 3129 
Q 3597 2675 3597 1894 
z
M 3022 2063 
Q 3016 2534 2758 2815 
Q 2500 3097 2075 3097 
Q 1594 3097 1305 2825 
Q 1016 2553 972 2059 
L 3022 2063 
z
" id="DejaVuSans-65" transform="scale(0.015625)"/>
       <path id="DejaVuSans-20" transform="scale(0.015625)"/>
       <path d="M 1984 4856 
Q 1566 4138 1362 3434 
Q 1159 2731 1159 2009 
Q 1159 1288 1364 580 
Q 1569 -128 1984 -844 
L 1484 -844 
Q 1016 -109 783 600 
Q 550 1309 550 2009 
Q 550 2706 781 3412 
Q 1013 4119 1484 4856 
L 1984 4856 
z
" id="DejaVuSans-28" transform="scale(0.015625)"/>
       <path d="M 2834 3397 
L 2834 2853 
Q 2591 2978 2328 3040 
Q 2066 3103 1784 3103 
Q 1356 3103 1142 2972 
Q 928 2841 928 2578 
Q 928 2378 1081 2264 
Q 1234 2150 1697 2047 
L 1894 2003 
Q 2506 1872 2764 1633 
Q 3022 1394 3022 966 
Q 3022 478 2636 193 
Q 2250 -91 1575 -91 
Q 1294 -91 989 -36 
Q 684 19 347 128 
L 347 722 
Q 666 556 975 473 
Q 1284 391 1588 391 
Q 1994 391 2212 530 
Q 2431 669 2431 922 
Q 2431 1156 2273 1281 
Q 2116 1406 1581 1522 
L 1381 1569 
Q 847 1681 609 1914 
Q 372 2147 372 2553 
Q 372 3047 722 3315 
Q 1072 3584 1716 3584 
Q 2034 3584 2315 3537 
Q 2597 3491 2834 3397 
z
" id="DejaVuSans-73" transform="scale(0.015625)"/>
       <path d="M 513 4856 
L 1013 4856 
Q 1481 4119 1714 3412 
Q 1947 2706 1947 2009 
Q 1947 1309 1714 600 
Q 1481 -109 1013 -844 
L 513 -844 
Q 928 -128 1133 580 
Q 1338 1288 1338 2009 
Q 1338 2731 1133 3434 
Q 928 4138 513 4856 
z
" id="DejaVuSans-29" transform="scale(0.015625)"/>
      </defs>
      <use xlink:href="#DejaVuSans-74"/>
      <use x="39.208984" xlink:href="#DejaVuSans-69"/>
      <use x="66.992188" xlink:href="#DejaVuSans-6d"/>
      <use x="164.404297" xlink:href="#DejaVuSans-65"/>
      <use x="225.927734" xlink:href="#DejaVuSans-20"/>
      <use x="257.714844" xlink:href="#DejaVuSans-28"/>
      <use x="296.728516" xlink:href="#DejaVuSans-6d"/>
      <use x="394.140625" xlink:href="#DejaVuSans-73"/>
      <use x="446.240234" xlink:href="#DejaVuSans-29"/>
     </g>
    </g>
   </g>
   <g id="matplotlib.axis_2"/>
   <g id="line2d_8">
    <path clip-path="url(#p99473e4917)" d="M 27.490909 440.19722 
L 27.955909 439.7742 
L 28.911273 439.255639 
L 30.982636 438.426698 
L 33.924818 437.482891 
L 37.348909 436.62807 
L 41.187273 435.898189 
L 45.448364 435.31874 
L 50.326636 434.885951 
L 56.211 434.59606 
L 64.082182 434.446244 
L 78.108273 434.441091 
L 132.843 434.511846 
L 196.590273 434.450813 
L 196.936909 432.957094 
L 197.680909 430.770955 
L 199.862182 424.691232 
L 200.614636 421.767108 
L 201.172636 418.700997 
L 201.595364 415.100484 
L 201.908182 410.443935 
L 202.136455 403.377093 
L 202.288636 390.686057 
L 202.381636 360.185092 
L 202.457727 209.418069 
L 202.508455 166.023529 
L 202.567636 198.966139 
L 202.897364 428.023144 
L 203.091818 457.24995 
L 203.303182 461.780238 
L 203.497636 462.465018 
L 203.624455 462.413674 
L 203.844273 461.964565 
L 204.385364 460.218334 
L 209.052273 444.010274 
L 210.751636 439.455207 
L 212.932909 434.283711 
L 215.629909 427.861432 
L 216.686727 424.744638 
L 217.439182 421.84065 
L 217.997182 418.805724 
L 218.419909 415.264623 
L 218.741182 410.566491 
L 218.969455 403.637961 
L 219.121636 391.446719 
L 219.214636 363.613792 
L 219.282273 243.524362 
L 219.341455 166.297908 
L 219.400636 194.578784 
L 219.755727 434.562018 
L 219.950182 458.170085 
L 220.161545 461.954698 
L 220.356 462.493037 
L 220.482818 462.403673 
L 220.728 461.85365 
L 221.353636 459.757495 
L 225.361091 445.57044 
L 227.009727 440.936805 
L 228.937364 436.20316 
L 232.894091 426.680912 
L 233.841 423.619339 
L 234.517364 420.661022 
L 235.024636 417.407733 
L 235.405091 413.4439 
L 235.684091 408.014463 
L 235.878545 399.408137 
L 236.005364 382.211928 
L 236.081455 332.696552 
L 236.182909 166.144851 
L 236.250545 208.592233 
L 236.554909 422.01918 
L 236.749364 456.457914 
L 236.952273 461.583636 
L 237.155182 462.466336 
L 237.290455 462.434562 
L 237.501818 462.016125 
L 238.017545 460.370609 
L 239.970545 453.051547 
L 241.695273 447.12297 
L 243.301636 442.390793 
L 245.094 437.808622 
L 250.225909 425.178664 
L 251.003727 422.312087 
L 251.587091 419.329506 
L 252.026727 415.932849 
L 252.356455 411.63712 
L 252.601636 405.318879 
L 252.770727 394.319203 
L 252.872182 371.336382 
L 252.939818 284.305965 
L 253.015909 166.130428 
L 253.075091 197.135383 
L 253.413273 430.1405 
L 253.607727 457.561397 
L 253.819091 461.843403 
L 254.013545 462.478879 
L 254.140364 462.414388 
L 254.368636 461.931376 
L 254.935091 460.076691 
L 259.356818 444.600805 
L 261.030818 440.032148 
L 263.127545 434.999641 
L 266.281091 427.475052 
L 267.304091 424.369653 
L 268.031182 421.447666 
L 268.572273 418.34113 
L 268.978091 414.693323 
L 269.282455 409.84343 
L 269.502273 402.363824 
L 269.646 388.778093 
L 269.730545 357.50852 
L 269.848909 166.281396 
L 269.958818 250.693737 
L 270.212455 416.314657 
L 270.415364 456.143642 
L 270.618273 461.524415 
L 270.821182 462.456485 
L 270.956455 462.436495 
L 271.159364 462.047688 
L 271.649727 460.505139 
L 273.332182 454.200161 
L 275.149909 447.81644 
L 276.756273 442.987777 
L 278.523273 438.394293 
L 281.076545 432.452847 
L 283.088727 427.550808 
L 284.120182 424.437038 
L 284.855727 421.499948 
L 285.405273 418.359359 
L 285.819545 414.62433 
L 286.123909 409.711183 
L 286.335273 402.501647 
L 286.479 389.219996 
L 286.563545 359.506213 
L 286.639636 207.254212 
L 286.690364 166.162334 
L 286.749545 200.290536 
L 287.079273 428.369727 
L 287.273727 457.319539 
L 287.485091 461.800994 
L 287.679545 462.474195 
L 287.806364 462.419246 
L 288.026182 461.966383 
L 288.575727 460.184781 
L 293.158091 444.220616 
L 294.840545 439.680622 
L 296.988 434.565401 
L 298.036364 432.166814 
L 298.078636 432.329094 
L 298.374545 432.890756 
L 298.814182 433.263773 
L 299.422909 433.47323 
L 300.589636 433.592704 
L 308.722909 433.92013 
L 322.030364 434.331607 
L 334.932 434.486014 
L 360.684545 434.518145 
L 433.309091 434.511256 
L 433.309091 434.511256 
" style="fill:none;stroke:#1f77b4;stroke-linecap:square;stroke-width:1.5;"/>
   </g>
   <g id="line2d_9">
    <path clip-path="url(#p99473e4917)" d="M 7.2 273.787243 
L 453.6 273.787243 
" style="fill:none;stroke:#ff0000;stroke-dasharray:5.55,2.4;stroke-dashoffset:0;stroke-width:1.5;"/>
   </g>
   <g id="patch_3">
    <path d="M 7.2 477.317647 
L 453.6 477.317647 
" style="fill:none;stroke:#000000;stroke-linecap:square;stroke-linejoin:miter;stroke-width:0.8;"/>
   </g>
   <g id="legend_1">
    <g id="patch_4">
     <path d="M 305.5725 169.3425 
L 448 169.3425 
Q 449.6 169.3425 449.6 167.7425 
L 449.6 156.8 
Q 449.6 155.2 448 155.2 
L 305.5725 155.2 
Q 303.9725 155.2 303.9725 156.8 
L 303.9725 167.7425 
Q 303.9725 169.3425 305.5725 169.3425 
z
" style="fill:#ffffff;opacity:0.8;stroke:#cccccc;stroke-linejoin:miter;"/>
    </g>
    <g id="line2d_10">
     <path d="M 307.1725 161.67875 
L 323.1725 161.67875 
" style="fill:none;stroke:#1f77b4;stroke-linecap:square;stroke-width:1.5;"/>
    </g>
    <g id="line2d_11"/>
    <g id="text_9">
     <!-- 5.0 pA, Spike Number = 12.0 -->
     <g transform="translate(329.5725 164.47875)scale(0.08 -0.08)">
      <defs>
       <path d="M 691 4666 
L 3169 4666 
L 3169 4134 
L 1269 4134 
L 1269 2991 
Q 1406 3038 1543 3061 
Q 1681 3084 1819 3084 
Q 2600 3084 3056 2656 
Q 3513 2228 3513 1497 
Q 3513 744 3044 326 
Q 2575 -91 1722 -91 
Q 1428 -91 1123 -41 
Q 819 9 494 109 
L 494 744 
Q 775 591 1075 516 
Q 1375 441 1709 441 
Q 2250 441 2565 725 
Q 2881 1009 2881 1497 
Q 2881 1984 2565 2268 
Q 2250 2553 1709 2553 
Q 1456 2553 1204 2497 
Q 953 2441 691 2322 
L 691 4666 
z
" id="DejaVuSans-35" transform="scale(0.015625)"/>
       <path d="M 684 794 
L 1344 794 
L 1344 0 
L 684 0 
L 684 794 
z
" id="DejaVuSans-2e" transform="scale(0.015625)"/>
       <path d="M 1159 525 
L 1159 -1331 
L 581 -1331 
L 581 3500 
L 1159 3500 
L 1159 2969 
Q 1341 3281 1617 3432 
Q 1894 3584 2278 3584 
Q 2916 3584 3314 3078 
Q 3713 2572 3713 1747 
Q 3713 922 3314 415 
Q 2916 -91 2278 -91 
Q 1894 -91 1617 61 
Q 1341 213 1159 525 
z
M 3116 1747 
Q 3116 2381 2855 2742 
Q 2594 3103 2138 3103 
Q 1681 3103 1420 2742 
Q 1159 2381 1159 1747 
Q 1159 1113 1420 752 
Q 1681 391 2138 391 
Q 2594 391 2855 752 
Q 3116 1113 3116 1747 
z
" id="DejaVuSans-70" transform="scale(0.015625)"/>
       <path d="M 2188 4044 
L 1331 1722 
L 3047 1722 
L 2188 4044 
z
M 1831 4666 
L 2547 4666 
L 4325 0 
L 3669 0 
L 3244 1197 
L 1141 1197 
L 716 0 
L 50 0 
L 1831 4666 
z
" id="DejaVuSans-41" transform="scale(0.015625)"/>
       <path d="M 750 794 
L 1409 794 
L 1409 256 
L 897 -744 
L 494 -744 
L 750 256 
L 750 794 
z
" id="DejaVuSans-2c" transform="scale(0.015625)"/>
       <path d="M 3425 4513 
L 3425 3897 
Q 3066 4069 2747 4153 
Q 2428 4238 2131 4238 
Q 1616 4238 1336 4038 
Q 1056 3838 1056 3469 
Q 1056 3159 1242 3001 
Q 1428 2844 1947 2747 
L 2328 2669 
Q 3034 2534 3370 2195 
Q 3706 1856 3706 1288 
Q 3706 609 3251 259 
Q 2797 -91 1919 -91 
Q 1588 -91 1214 -16 
Q 841 59 441 206 
L 441 856 
Q 825 641 1194 531 
Q 1563 422 1919 422 
Q 2459 422 2753 634 
Q 3047 847 3047 1241 
Q 3047 1584 2836 1778 
Q 2625 1972 2144 2069 
L 1759 2144 
Q 1053 2284 737 2584 
Q 422 2884 422 3419 
Q 422 4038 858 4394 
Q 1294 4750 2059 4750 
Q 2388 4750 2728 4690 
Q 3069 4631 3425 4513 
z
" id="DejaVuSans-53" transform="scale(0.015625)"/>
       <path d="M 581 4863 
L 1159 4863 
L 1159 1991 
L 2875 3500 
L 3609 3500 
L 1753 1863 
L 3688 0 
L 2938 0 
L 1159 1709 
L 1159 0 
L 581 0 
L 581 4863 
z
" id="DejaVuSans-6b" transform="scale(0.015625)"/>
       <path d="M 628 4666 
L 1478 4666 
L 3547 763 
L 3547 4666 
L 4159 4666 
L 4159 0 
L 3309 0 
L 1241 3903 
L 1241 0 
L 628 0 
L 628 4666 
z
" id="DejaVuSans-4e" transform="scale(0.015625)"/>
       <path d="M 544 1381 
L 544 3500 
L 1119 3500 
L 1119 1403 
Q 1119 906 1312 657 
Q 1506 409 1894 409 
Q 2359 409 2629 706 
Q 2900 1003 2900 1516 
L 2900 3500 
L 3475 3500 
L 3475 0 
L 2900 0 
L 2900 538 
Q 2691 219 2414 64 
Q 2138 -91 1772 -91 
Q 1169 -91 856 284 
Q 544 659 544 1381 
z
M 1991 3584 
L 1991 3584 
z
" id="DejaVuSans-75" transform="scale(0.015625)"/>
       <path d="M 3116 1747 
Q 3116 2381 2855 2742 
Q 2594 3103 2138 3103 
Q 1681 3103 1420 2742 
Q 1159 2381 1159 1747 
Q 1159 1113 1420 752 
Q 1681 391 2138 391 
Q 2594 391 2855 752 
Q 3116 1113 3116 1747 
z
M 1159 2969 
Q 1341 3281 1617 3432 
Q 1894 3584 2278 3584 
Q 2916 3584 3314 3078 
Q 3713 2572 3713 1747 
Q 3713 922 3314 415 
Q 2916 -91 2278 -91 
Q 1894 -91 1617 61 
Q 1341 213 1159 525 
L 1159 0 
L 581 0 
L 581 4863 
L 1159 4863 
L 1159 2969 
z
" id="DejaVuSans-62" transform="scale(0.015625)"/>
       <path d="M 2631 2963 
Q 2534 3019 2420 3045 
Q 2306 3072 2169 3072 
Q 1681 3072 1420 2755 
Q 1159 2438 1159 1844 
L 1159 0 
L 581 0 
L 581 3500 
L 1159 3500 
L 1159 2956 
Q 1341 3275 1631 3429 
Q 1922 3584 2338 3584 
Q 2397 3584 2469 3576 
Q 2541 3569 2628 3553 
L 2631 2963 
z
" id="DejaVuSans-72" transform="scale(0.015625)"/>
       <path d="M 678 2906 
L 4684 2906 
L 4684 2381 
L 678 2381 
L 678 2906 
z
M 678 1631 
L 4684 1631 
L 4684 1100 
L 678 1100 
L 678 1631 
z
" id="DejaVuSans-3d" transform="scale(0.015625)"/>
      </defs>
      <use xlink:href="#DejaVuSans-35"/>
      <use x="63.623047" xlink:href="#DejaVuSans-2e"/>
      <use x="95.410156" xlink:href="#DejaVuSans-30"/>
      <use x="159.033203" xlink:href="#DejaVuSans-20"/>
      <use x="190.820312" xlink:href="#DejaVuSans-70"/>
      <use x="254.296875" xlink:href="#DejaVuSans-41"/>
      <use x="322.705078" xlink:href="#DejaVuSans-2c"/>
      <use x="354.492188" xlink:href="#DejaVuSans-20"/>
      <use x="386.279297" xlink:href="#DejaVuSans-53"/>
      <use x="449.755859" xlink:href="#DejaVuSans-70"/>
      <use x="513.232422" xlink:href="#DejaVuSans-69"/>
      <use x="541.015625" xlink:href="#DejaVuSans-6b"/>
      <use x="595.300781" xlink:href="#DejaVuSans-65"/>
      <use x="656.824219" xlink:href="#DejaVuSans-20"/>
      <use x="688.611328" xlink:href="#DejaVuSans-4e"/>
      <use x="763.416016" xlink:href="#DejaVuSans-75"/>
      <use x="826.794922" xlink:href="#DejaVuSans-6d"/>
      <use x="924.207031" xlink:href="#DejaVuSans-62"/>
      <use x="987.683594" xlink:href="#DejaVuSans-65"/>
      <use x="1049.207031" xlink:href="#DejaVuSans-72"/>
      <use x="1090.320312" xlink:href="#DejaVuSans-20"/>
      <use x="1122.107422" xlink:href="#DejaVuSans-3d"/>
      <use x="1205.896484" xlink:href="#DejaVuSans-20"/>
      <use x="1237.683594" xlink:href="#DejaVuSans-31"/>
      <use x="1301.306641" xlink:href="#DejaVuSans-32"/>
      <use x="1364.929688" xlink:href="#DejaVuSans-2e"/>
      <use x="1396.716797" xlink:href="#DejaVuSans-30"/>
     </g>
    </g>
   </g>
  </g>
  <g id="axes_2">
   <g id="patch_5">
    <path d="M 7.2 868.658824 
L 453.6 868.658824 
L 453.6 542.541176 
L 7.2 542.541176 
z
" style="fill:#ffffff;"/>
   </g>
   <g id="matplotlib.axis_3">
    <g id="xtick_8">
     <g id="line2d_12">
      <g>
       <use style="stroke:#000000;stroke-width:0.8;" x="27.490909" xlink:href="#m364e1d0840" y="868.658824"/>
      </g>
     </g>
     <g id="text_10">
      <!-- 0 -->
      <g transform="translate(24.309659 883.257261)scale(0.1 -0.1)">
       <use xlink:href="#DejaVuSans-30"/>
      </g>
     </g>
    </g>
    <g id="xtick_9">
     <g id="line2d_13">
      <g>
       <use style="stroke:#000000;stroke-width:0.8;" x="95.127273" xlink:href="#m364e1d0840" y="868.658824"/>
      </g>
     </g>
     <g id="text_11">
      <!-- 200 -->
      <g transform="translate(85.583523 883.257261)scale(0.1 -0.1)">
       <use xlink:href="#DejaVuSans-32"/>
       <use x="63.623047" xlink:href="#DejaVuSans-30"/>
       <use x="127.246094" xlink:href="#DejaVuSans-30"/>
      </g>
     </g>
    </g>
    <g id="xtick_10">
     <g id="line2d_14">
      <g>
       <use style="stroke:#000000;stroke-width:0.8;" x="162.763636" xlink:href="#m364e1d0840" y="868.658824"/>
      </g>
     </g>
     <g id="text_12">
      <!-- 400 -->
      <g transform="translate(153.219886 883.257261)scale(0.1 -0.1)">
       <use xlink:href="#DejaVuSans-34"/>
       <use x="63.623047" xlink:href="#DejaVuSans-30"/>
       <use x="127.246094" xlink:href="#DejaVuSans-30"/>
      </g>
     </g>
    </g>
    <g id="xtick_11">
     <g id="line2d_15">
      <g>
       <use style="stroke:#000000;stroke-width:0.8;" x="230.4" xlink:href="#m364e1d0840" y="868.658824"/>
      </g>
     </g>
     <g id="text_13">
      <!-- 600 -->
      <g transform="translate(220.85625 883.257261)scale(0.1 -0.1)">
       <use xlink:href="#DejaVuSans-36"/>
       <use x="63.623047" xlink:href="#DejaVuSans-30"/>
       <use x="127.246094" xlink:href="#DejaVuSans-30"/>
      </g>
     </g>
    </g>
    <g id="xtick_12">
     <g id="line2d_16">
      <g>
       <use style="stroke:#000000;stroke-width:0.8;" x="298.036364" xlink:href="#m364e1d0840" y="868.658824"/>
      </g>
     </g>
     <g id="text_14">
      <!-- 800 -->
      <g transform="translate(288.492614 883.257261)scale(0.1 -0.1)">
       <use xlink:href="#DejaVuSans-38"/>
       <use x="63.623047" xlink:href="#DejaVuSans-30"/>
       <use x="127.246094" xlink:href="#DejaVuSans-30"/>
      </g>
     </g>
    </g>
    <g id="xtick_13">
     <g id="line2d_17">
      <g>
       <use style="stroke:#000000;stroke-width:0.8;" x="365.672727" xlink:href="#m364e1d0840" y="868.658824"/>
      </g>
     </g>
     <g id="text_15">
      <!-- 1000 -->
      <g transform="translate(352.947727 883.257261)scale(0.1 -0.1)">
       <use xlink:href="#DejaVuSans-31"/>
       <use x="63.623047" xlink:href="#DejaVuSans-30"/>
       <use x="127.246094" xlink:href="#DejaVuSans-30"/>
       <use x="190.869141" xlink:href="#DejaVuSans-30"/>
      </g>
     </g>
    </g>
    <g id="xtick_14">
     <g id="line2d_18">
      <g>
       <use style="stroke:#000000;stroke-width:0.8;" x="433.309091" xlink:href="#m364e1d0840" y="868.658824"/>
      </g>
     </g>
     <g id="text_16">
      <!-- 1200 -->
      <g transform="translate(420.584091 883.257261)scale(0.1 -0.1)">
       <use xlink:href="#DejaVuSans-31"/>
       <use x="63.623047" xlink:href="#DejaVuSans-32"/>
       <use x="127.246094" xlink:href="#DejaVuSans-30"/>
       <use x="190.869141" xlink:href="#DejaVuSans-30"/>
      </g>
     </g>
    </g>
    <g id="text_17">
     <!-- time (ms) -->
     <g transform="translate(206.138281 896.935386)scale(0.1 -0.1)">
      <use xlink:href="#DejaVuSans-74"/>
      <use x="39.208984" xlink:href="#DejaVuSans-69"/>
      <use x="66.992188" xlink:href="#DejaVuSans-6d"/>
      <use x="164.404297" xlink:href="#DejaVuSans-65"/>
      <use x="225.927734" xlink:href="#DejaVuSans-20"/>
      <use x="257.714844" xlink:href="#DejaVuSans-28"/>
      <use x="296.728516" xlink:href="#DejaVuSans-6d"/>
      <use x="394.140625" xlink:href="#DejaVuSans-73"/>
      <use x="446.240234" xlink:href="#DejaVuSans-29"/>
     </g>
    </g>
   </g>
   <g id="matplotlib.axis_4"/>
   <g id="line2d_19">
    <path clip-path="url(#p05cda532fc)" d="M 27.490909 832.216539 
L 27.955909 831.79501 
L 28.911273 831.278275 
L 30.991091 830.449212 
L 33.933273 829.509382 
L 37.365818 828.656257 
L 41.212636 827.928547 
L 45.482182 827.351482 
L 50.368909 826.921109 
L 56.278636 826.632879 
L 64.192091 826.48492 
L 78.404182 826.481666 
L 132.403364 826.551191 
L 196.581818 826.550621 
L 196.877727 823.868942 
L 197.647091 819.082287 
L 198.585545 812.941512 
L 199.059 808.255418 
L 199.380273 802.778968 
L 199.600091 794.973523 
L 199.743818 780.919767 
L 199.828364 747.381568 
L 199.946727 557.364706 
L 200.048182 635.687759 
L 200.301818 805.661206 
L 200.504727 847.472341 
L 200.707636 852.972055 
L 200.902091 853.822851 
L 201.020455 853.773709 
L 201.223364 853.296921 
L 201.696818 851.472412 
L 202.846636 845.984855 
L 205.636636 832.573097 
L 209.754 813.870407 
L 210.312 809.605558 
L 210.700909 804.885823 
L 210.971455 798.805141 
L 211.157455 789.182801 
L 211.275818 769.672089 
L 211.343455 717.324236 
L 211.436455 561.559379 
L 211.504091 600.218098 
L 211.808455 812.618477 
L 212.011364 848.069381 
L 212.214273 852.886553 
L 212.408727 853.62538 
L 212.527091 853.55135 
L 212.746909 853.000364 
L 213.262636 850.95379 
L 214.539273 844.794772 
L 217.033364 832.86038 
L 219.738818 821.3697 
L 220.888636 815.851881 
L 221.565 811.487782 
L 222.021545 807.057267 
L 222.342818 801.671393 
L 222.562636 794.012136 
L 222.706364 780.549205 
L 222.790909 750.936807 
L 222.867 603.819477 
L 222.917727 561.611689 
L 222.976909 595.900552 
L 223.298182 817.274716 
L 223.492636 848.229938 
L 223.695545 852.89278 
L 223.89 853.603143 
L 223.999909 853.535267 
L 224.211273 853.02013 
L 224.710091 851.064853 
L 225.936 845.180444 
L 228.531545 832.755543 
L 232.733455 813.659923 
L 233.283 809.394683 
L 233.671909 804.554431 
L 233.942455 798.164821 
L 234.12 788.307622 
L 234.229909 769.325275 
L 234.297545 715.782273 
L 234.390545 561.617536 
L 234.458182 601.102374 
L 234.762545 812.794557 
L 234.965455 848.04171 
L 235.168364 852.853302 
L 235.362818 853.593703 
L 235.481182 853.520324 
L 235.692545 852.997147 
L 236.199818 850.998984 
L 237.451091 844.98032 
L 239.995909 832.80436 
L 244.214727 813.623965 
L 244.764273 809.341486 
L 245.144727 804.604359 
L 245.415273 798.27018 
L 245.592818 788.586666 
L 245.711182 767.44234 
L 245.778818 705.667792 
L 245.871818 561.738741 
L 245.931 597.905163 
L 246.243818 814.825263 
L 246.438273 847.870151 
L 246.641182 852.820039 
L 246.835636 853.587837 
L 246.954 853.520998 
L 247.165364 853.003337 
L 247.664182 851.046397 
L 248.890091 845.162225 
L 251.485636 832.741316 
L 255.679091 813.696767 
L 256.228636 809.45076 
L 256.617545 804.652305 
L 256.888091 798.370206 
L 257.065636 788.847674 
L 257.184 768.495048 
L 257.251636 711.396947 
L 257.344636 561.589684 
L 257.412273 603.625332 
L 257.708182 810.341387 
L 257.911091 847.705828 
L 258.114 852.789711 
L 258.308455 853.583668 
L 258.426818 853.523033 
L 258.638182 853.010588 
L 259.128545 851.094463 
L 260.337545 845.302225 
L 262.966909 832.715895 
L 267.151909 813.714784 
L 267.701455 809.477832 
L 268.090364 804.698962 
L 268.360909 798.46676 
L 268.546909 788.345258 
L 268.656818 769.467717 
L 268.724455 716.539045 
L 268.817455 561.637504 
L 268.885091 600.604472 
L 269.189455 812.56096 
L 269.392364 847.998264 
L 269.595273 852.838663 
L 269.789727 853.585375 
L 269.908091 853.513564 
L 270.119455 852.99174 
L 270.618273 851.031842 
L 271.852636 845.10421 
L 274.431273 832.765428 
L 278.633182 813.678392 
L 279.182727 809.423641 
L 279.571636 804.606116 
L 279.842182 798.275106 
L 280.019727 788.601493 
L 280.138091 767.507014 
L 280.205727 706.032785 
L 280.298727 561.722771 
L 280.357909 597.698577 
L 280.670727 814.722168 
L 280.865182 847.848501 
L 281.068091 852.812232 
L 281.262545 853.583106 
L 281.380909 853.517033 
L 281.592273 853.000037 
L 282.091091 851.04363 
L 283.317 845.160126 
L 285.912545 832.740167 
L 290.106 813.69626 
L 290.655545 809.450385 
L 291.044455 804.652166 
L 291.315 798.370637 
L 291.492545 788.849875 
L 291.610909 768.506022 
L 291.678545 711.460799 
L 291.771545 561.588756 
L 291.839182 603.574572 
L 292.135091 810.30692 
L 292.338 847.696959 
L 292.540909 852.785848 
L 292.735364 853.580995 
L 292.853727 853.520663 
L 293.065091 853.008484 
L 293.555455 851.092578 
L 294.764455 845.300674 
L 297.393818 832.714936 
L 298.036364 829.924848 
L 298.070182 830.204647 
L 298.349182 831.341403 
L 298.704273 831.947164 
L 299.093182 832.199061 
L 299.600455 832.247416 
L 300.488182 832.070652 
L 304.326545 830.911497 
L 308.545364 829.798117 
L 312.823364 828.904713 
L 317.659364 828.118513 
L 322.842 827.504348 
L 328.641818 827.046268 
L 335.523818 826.734274 
L 344.604 826.559965 
L 360.270273 826.51767 
L 433.309091 826.550728 
L 433.309091 826.550728 
" style="fill:none;stroke:#1f77b4;stroke-linecap:square;stroke-width:1.5;"/>
   </g>
   <g id="line2d_20">
    <path clip-path="url(#p05cda532fc)" d="M 7.2 666.392593 
L 453.6 666.392593 
" style="fill:none;stroke:#ff0000;stroke-dasharray:5.55,2.4;stroke-dashoffset:0;stroke-width:1.5;"/>
   </g>
   <g id="patch_6">
    <path d="M 7.2 868.658824 
L 453.6 868.658824 
" style="fill:none;stroke:#000000;stroke-linecap:square;stroke-linejoin:miter;stroke-width:0.8;"/>
   </g>
   <g id="legend_2">
    <g id="patch_7">
     <path d="M 300.4825 560.683676 
L 448 560.683676 
Q 449.6 560.683676 449.6 559.083676 
L 449.6 548.141176 
Q 449.6 546.541176 448 546.541176 
L 300.4825 546.541176 
Q 298.8825 546.541176 298.8825 548.141176 
L 298.8825 559.083676 
Q 298.8825 560.683676 300.4825 560.683676 
z
" style="fill:#ffffff;opacity:0.8;stroke:#cccccc;stroke-linejoin:miter;"/>
    </g>
    <g id="line2d_21">
     <path d="M 302.0825 553.019926 
L 318.0825 553.019926 
" style="fill:none;stroke:#1f77b4;stroke-linecap:square;stroke-width:1.5;"/>
    </g>
    <g id="line2d_22"/>
    <g id="text_18">
     <!-- 10.0 pA, Spike Number = 18.0 -->
     <g transform="translate(324.4825 555.819926)scale(0.08 -0.08)">
      <use xlink:href="#DejaVuSans-31"/>
      <use x="63.623047" xlink:href="#DejaVuSans-30"/>
      <use x="127.246094" xlink:href="#DejaVuSans-2e"/>
      <use x="159.033203" xlink:href="#DejaVuSans-30"/>
      <use x="222.65625" xlink:href="#DejaVuSans-20"/>
      <use x="254.443359" xlink:href="#DejaVuSans-70"/>
      <use x="317.919922" xlink:href="#DejaVuSans-41"/>
      <use x="386.328125" xlink:href="#DejaVuSans-2c"/>
      <use x="418.115234" xlink:href="#DejaVuSans-20"/>
      <use x="449.902344" xlink:href="#DejaVuSans-53"/>
      <use x="513.378906" xlink:href="#DejaVuSans-70"/>
      <use x="576.855469" xlink:href="#DejaVuSans-69"/>
      <use x="604.638672" xlink:href="#DejaVuSans-6b"/>
      <use x="658.923828" xlink:href="#DejaVuSans-65"/>
      <use x="720.447266" xlink:href="#DejaVuSans-20"/>
      <use x="752.234375" xlink:href="#DejaVuSans-4e"/>
      <use x="827.039062" xlink:href="#DejaVuSans-75"/>
      <use x="890.417969" xlink:href="#DejaVuSans-6d"/>
      <use x="987.830078" xlink:href="#DejaVuSans-62"/>
      <use x="1051.306641" xlink:href="#DejaVuSans-65"/>
      <use x="1112.830078" xlink:href="#DejaVuSans-72"/>
      <use x="1153.943359" xlink:href="#DejaVuSans-20"/>
      <use x="1185.730469" xlink:href="#DejaVuSans-3d"/>
      <use x="1269.519531" xlink:href="#DejaVuSans-20"/>
      <use x="1301.306641" xlink:href="#DejaVuSans-31"/>
      <use x="1364.929688" xlink:href="#DejaVuSans-38"/>
      <use x="1428.552734" xlink:href="#DejaVuSans-2e"/>
      <use x="1460.339844" xlink:href="#DejaVuSans-30"/>
     </g>
    </g>
   </g>
  </g>
  <g id="axes_3">
   <g id="patch_8">
    <path d="M 7.2 1260 
L 453.6 1260 
L 453.6 933.882353 
L 7.2 933.882353 
z
" style="fill:#ffffff;"/>
   </g>
   <g id="matplotlib.axis_5">
    <g id="xtick_15">
     <g id="line2d_23">
      <g>
       <use style="stroke:#000000;stroke-width:0.8;" x="27.490909" xlink:href="#m364e1d0840" y="1260"/>
      </g>
     </g>
     <g id="text_19">
      <!-- 0 -->
      <g transform="translate(24.309659 1274.598437)scale(0.1 -0.1)">
       <use xlink:href="#DejaVuSans-30"/>
      </g>
     </g>
    </g>
    <g id="xtick_16">
     <g id="line2d_24">
      <g>
       <use style="stroke:#000000;stroke-width:0.8;" x="95.127273" xlink:href="#m364e1d0840" y="1260"/>
      </g>
     </g>
     <g id="text_20">
      <!-- 200 -->
      <g transform="translate(85.583523 1274.598437)scale(0.1 -0.1)">
       <use xlink:href="#DejaVuSans-32"/>
       <use x="63.623047" xlink:href="#DejaVuSans-30"/>
       <use x="127.246094" xlink:href="#DejaVuSans-30"/>
      </g>
     </g>
    </g>
    <g id="xtick_17">
     <g id="line2d_25">
      <g>
       <use style="stroke:#000000;stroke-width:0.8;" x="162.763636" xlink:href="#m364e1d0840" y="1260"/>
      </g>
     </g>
     <g id="text_21">
      <!-- 400 -->
      <g transform="translate(153.219886 1274.598437)scale(0.1 -0.1)">
       <use xlink:href="#DejaVuSans-34"/>
       <use x="63.623047" xlink:href="#DejaVuSans-30"/>
       <use x="127.246094" xlink:href="#DejaVuSans-30"/>
      </g>
     </g>
    </g>
    <g id="xtick_18">
     <g id="line2d_26">
      <g>
       <use style="stroke:#000000;stroke-width:0.8;" x="230.4" xlink:href="#m364e1d0840" y="1260"/>
      </g>
     </g>
     <g id="text_22">
      <!-- 600 -->
      <g transform="translate(220.85625 1274.598437)scale(0.1 -0.1)">
       <use xlink:href="#DejaVuSans-36"/>
       <use x="63.623047" xlink:href="#DejaVuSans-30"/>
       <use x="127.246094" xlink:href="#DejaVuSans-30"/>
      </g>
     </g>
    </g>
    <g id="xtick_19">
     <g id="line2d_27">
      <g>
       <use style="stroke:#000000;stroke-width:0.8;" x="298.036364" xlink:href="#m364e1d0840" y="1260"/>
      </g>
     </g>
     <g id="text_23">
      <!-- 800 -->
      <g transform="translate(288.492614 1274.598437)scale(0.1 -0.1)">
       <use xlink:href="#DejaVuSans-38"/>
       <use x="63.623047" xlink:href="#DejaVuSans-30"/>
       <use x="127.246094" xlink:href="#DejaVuSans-30"/>
      </g>
     </g>
    </g>
    <g id="xtick_20">
     <g id="line2d_28">
      <g>
       <use style="stroke:#000000;stroke-width:0.8;" x="365.672727" xlink:href="#m364e1d0840" y="1260"/>
      </g>
     </g>
     <g id="text_24">
      <!-- 1000 -->
      <g transform="translate(352.947727 1274.598437)scale(0.1 -0.1)">
       <use xlink:href="#DejaVuSans-31"/>
       <use x="63.623047" xlink:href="#DejaVuSans-30"/>
       <use x="127.246094" xlink:href="#DejaVuSans-30"/>
       <use x="190.869141" xlink:href="#DejaVuSans-30"/>
      </g>
     </g>
    </g>
    <g id="xtick_21">
     <g id="line2d_29">
      <g>
       <use style="stroke:#000000;stroke-width:0.8;" x="433.309091" xlink:href="#m364e1d0840" y="1260"/>
      </g>
     </g>
     <g id="text_25">
      <!-- 1200 -->
      <g transform="translate(420.584091 1274.598437)scale(0.1 -0.1)">
       <use xlink:href="#DejaVuSans-31"/>
       <use x="63.623047" xlink:href="#DejaVuSans-32"/>
       <use x="127.246094" xlink:href="#DejaVuSans-30"/>
       <use x="190.869141" xlink:href="#DejaVuSans-30"/>
      </g>
     </g>
    </g>
    <g id="text_26">
     <!-- time (ms) -->
     <g transform="translate(206.138281 1288.276562)scale(0.1 -0.1)">
      <use xlink:href="#DejaVuSans-74"/>
      <use x="39.208984" xlink:href="#DejaVuSans-69"/>
      <use x="66.992188" xlink:href="#DejaVuSans-6d"/>
      <use x="164.404297" xlink:href="#DejaVuSans-65"/>
      <use x="225.927734" xlink:href="#DejaVuSans-20"/>
      <use x="257.714844" xlink:href="#DejaVuSans-28"/>
      <use x="296.728516" xlink:href="#DejaVuSans-6d"/>
      <use x="394.140625" xlink:href="#DejaVuSans-73"/>
      <use x="446.240234" xlink:href="#DejaVuSans-29"/>
     </g>
    </g>
   </g>
   <g id="matplotlib.axis_6"/>
   <g id="line2d_30">
    <path clip-path="url(#pf887542ec0)" d="M 27.490909 1224.15851 
L 27.955909 1223.737146 
L 28.911273 1223.220614 
L 30.991091 1222.391877 
L 33.933273 1221.452416 
L 37.365818 1220.599625 
L 41.212636 1219.872201 
L 45.482182 1219.295363 
L 50.368909 1218.865159 
L 56.278636 1218.577042 
L 64.192091 1218.429141 
L 78.404182 1218.425888 
L 132.420273 1218.495386 
L 196.581818 1218.494816 
L 196.877727 1214.468952 
L 198.391091 1196.658954 
L 198.636273 1188.820725 
L 198.788455 1176.387309 
L 198.881455 1148.383291 
L 198.949091 1023.959713 
L 199.008273 948.705882 
L 199.067455 976.793077 
L 199.422545 1217.675206 
L 199.617 1241.287519 
L 199.819909 1244.789639 
L 199.980545 1245.176109 
L 199.997455 1245.17059 
L 200.124273 1244.970405 
L 200.403273 1243.983353 
L 201.045818 1240.725362 
L 202.415455 1232.447393 
L 205.678909 1212.725748 
L 206.710364 1205.700339 
L 207.268364 1200.387051 
L 207.640364 1194.651421 
L 207.885545 1187.254543 
L 208.046182 1175.042502 
L 208.147636 1146.084438 
L 208.215273 1035.033819 
L 208.282909 956.853438 
L 208.342091 993.932693 
L 208.654909 1207.215348 
L 208.849364 1239.369712 
L 209.052273 1244.157261 
L 209.238273 1244.813345 
L 209.348182 1244.709527 
L 209.568 1244.05216 
L 210.075273 1241.669587 
L 211.174364 1235.280017 
L 216.145636 1204.015158 
L 216.644455 1198.616085 
L 216.974182 1192.46819 
L 217.194 1183.697254 
L 217.329273 1168.380842 
L 217.413818 1127.04149 
L 217.523727 956.901176 
L 217.608273 1018.517693 
L 217.870364 1195.709706 
L 218.081727 1238.664847 
L 218.284636 1244.003582 
L 218.479091 1244.771092 
L 218.580545 1244.690661 
L 218.783455 1244.121347 
L 219.248455 1242.003098 
L 220.271455 1236.147445 
L 225.268091 1205.028891 
L 225.809182 1199.632965 
L 226.164273 1193.737311 
L 226.401 1185.727334 
L 226.553182 1171.809633 
L 226.646182 1136.769961 
L 226.764545 956.91008 
L 226.857545 1026.349231 
L 227.119636 1198.593188 
L 227.322545 1238.545929 
L 227.525455 1243.972808 
L 227.719909 1244.758235 
L 227.821364 1244.681677 
L 228.024273 1244.116294 
L 228.489273 1242.001143 
L 229.512273 1236.14813 
L 234.508909 1205.036028 
L 235.05 1199.645197 
L 235.405091 1193.76137 
L 235.641818 1185.78526 
L 235.794 1171.998523 
L 235.887 1137.74013 
L 236.005364 956.945446 
L 236.106818 1034.562235 
L 236.360455 1198.054612 
L 236.563364 1238.458614 
L 236.766273 1243.952111 
L 236.960727 1244.7508 
L 237.062182 1244.677083 
L 237.265091 1244.114567 
L 237.730091 1242.001639 
L 238.753091 1236.150397 
L 243.749727 1205.042605 
L 244.290818 1199.655981 
L 244.645909 1193.781969 
L 244.882636 1185.833881 
L 245.034818 1172.154677 
L 245.127818 1138.528039 
L 245.246182 957.000363 
L 245.347636 1033.442992 
L 245.601273 1197.61341 
L 245.804182 1238.388827 
L 246.007091 1243.936647 
L 246.201545 1244.746002 
L 246.303 1244.674556 
L 246.497455 1244.144671 
L 246.945545 1242.132977 
L 247.934727 1236.512806 
L 252.922909 1205.596178 
L 253.480909 1200.283439 
L 253.852909 1194.537771 
L 254.098091 1187.108044 
L 254.258727 1174.781461 
L 254.360182 1145.228209 
L 254.427818 1032.263017 
L 254.487 957.068053 
L 254.546182 986.677604 
L 254.884364 1213.080332 
L 255.078818 1240.082302 
L 255.281727 1244.214691 
L 255.467727 1244.745285 
L 255.577636 1244.610971 
L 255.814364 1243.857612 
L 256.363909 1241.204619 
L 257.556 1234.183223 
L 262.425818 1203.363372 
L 262.890818 1198.075446 
L 263.203636 1191.912012 
L 263.415 1182.911148 
L 263.550273 1165.708617 
L 263.626364 1123.239723 
L 263.736273 957.102862 
L 263.812364 1012.486408 
L 264.082909 1196.89406 
L 264.285818 1238.278547 
L 264.488727 1243.914395 
L 264.683182 1244.740739 
L 264.784636 1244.672891 
L 264.979091 1244.146518 
L 265.427182 1242.137605 
L 266.416364 1236.519413 
L 271.404545 1205.607079 
L 271.962545 1200.30012 
L 272.334545 1194.56796 
L 272.579727 1187.174679 
L 272.740364 1174.978576 
L 272.841818 1146.16369 
L 272.909455 1036.191553 
L 272.977091 957.039904 
L 273.036273 993.536713 
L 273.349091 1206.72957 
L 273.552 1239.617406 
L 273.754909 1244.134767 
L 273.940909 1244.743231 
L 274.050818 1244.628244 
L 274.279091 1243.927624 
L 274.803273 1241.436178 
L 275.936182 1234.816812 
L 280.865182 1203.759384 
L 281.347091 1198.458695 
L 281.668364 1192.406264 
L 281.879727 1184.096136 
L 282.015 1169.692771 
L 282.099545 1133.800471 
L 282.217909 956.991073 
L 282.302455 1020.411694 
L 282.564545 1196.280077 
L 282.775909 1238.69073 
L 282.978818 1243.980531 
L 283.173273 1244.74126 
L 283.274727 1244.659598 
L 283.477636 1244.089126 
L 283.942636 1241.970149 
L 284.965636 1236.115723 
L 289.962273 1205.001057 
L 290.494909 1199.699967 
L 290.85 1193.863108 
L 291.086727 1186.020427 
L 291.238909 1172.738217 
L 291.331909 1141.360052 
L 291.416455 983.607013 
L 291.458727 956.954169 
L 291.517909 992.168365 
L 291.830727 1206.221044 
L 292.033636 1239.549086 
L 292.236545 1244.122392 
L 292.422545 1244.742029 
L 292.532455 1244.629798 
L 292.760727 1243.931908 
L 293.284909 1241.442454 
L 294.417818 1234.824359 
L 298.036364 1212.990289 
L 298.044818 1213.119417 
L 298.306909 1215.07353 
L 298.704273 1216.492139 
L 299.143909 1217.296042 
L 299.668091 1217.800616 
L 300.403636 1218.182414 
L 301.638 1218.545709 
L 303.667091 1218.894046 
L 306.482455 1219.141882 
L 310.38 1219.247902 
L 316.467273 1219.167258 
L 345.288818 1218.556484 
L 367.372091 1218.490595 
L 433.309091 1218.494842 
L 433.309091 1218.494842 
" style="fill:none;stroke:#1f77b4;stroke-linecap:square;stroke-width:1.5;"/>
   </g>
   <g id="line2d_31">
    <path clip-path="url(#pf887542ec0)" d="M 7.2 1058.39965 
L 453.6 1058.39965 
" style="fill:none;stroke:#ff0000;stroke-dasharray:5.55,2.4;stroke-dashoffset:0;stroke-width:1.5;"/>
   </g>
   <g id="patch_9">
    <path d="M 7.2 1260 
L 453.6 1260 
" style="fill:none;stroke:#000000;stroke-linecap:square;stroke-linejoin:miter;stroke-width:0.8;"/>
   </g>
   <g id="legend_3">
    <g id="patch_10">
     <path d="M 300.4825 952.024853 
L 448 952.024853 
Q 449.6 952.024853 449.6 950.424853 
L 449.6 939.482353 
Q 449.6 937.882353 448 937.882353 
L 300.4825 937.882353 
Q 298.8825 937.882353 298.8825 939.482353 
L 298.8825 950.424853 
Q 298.8825 952.024853 300.4825 952.024853 
z
" style="fill:#ffffff;opacity:0.8;stroke:#cccccc;stroke-linejoin:miter;"/>
    </g>
    <g id="line2d_32">
     <path d="M 302.0825 944.361103 
L 318.0825 944.361103 
" style="fill:none;stroke:#1f77b4;stroke-linecap:square;stroke-width:1.5;"/>
    </g>
    <g id="line2d_33"/>
    <g id="text_27">
     <!-- 15.0 pA, Spike Number = 22.0 -->
     <g transform="translate(324.4825 947.161103)scale(0.08 -0.08)">
      <use xlink:href="#DejaVuSans-31"/>
      <use x="63.623047" xlink:href="#DejaVuSans-35"/>
      <use x="127.246094" xlink:href="#DejaVuSans-2e"/>
      <use x="159.033203" xlink:href="#DejaVuSans-30"/>
      <use x="222.65625" xlink:href="#DejaVuSans-20"/>
      <use x="254.443359" xlink:href="#DejaVuSans-70"/>
      <use x="317.919922" xlink:href="#DejaVuSans-41"/>
      <use x="386.328125" xlink:href="#DejaVuSans-2c"/>
      <use x="418.115234" xlink:href="#DejaVuSans-20"/>
      <use x="449.902344" xlink:href="#DejaVuSans-53"/>
      <use x="513.378906" xlink:href="#DejaVuSans-70"/>
      <use x="576.855469" xlink:href="#DejaVuSans-69"/>
      <use x="604.638672" xlink:href="#DejaVuSans-6b"/>
      <use x="658.923828" xlink:href="#DejaVuSans-65"/>
      <use x="720.447266" xlink:href="#DejaVuSans-20"/>
      <use x="752.234375" xlink:href="#DejaVuSans-4e"/>
      <use x="827.039062" xlink:href="#DejaVuSans-75"/>
      <use x="890.417969" xlink:href="#DejaVuSans-6d"/>
      <use x="987.830078" xlink:href="#DejaVuSans-62"/>
      <use x="1051.306641" xlink:href="#DejaVuSans-65"/>
      <use x="1112.830078" xlink:href="#DejaVuSans-72"/>
      <use x="1153.943359" xlink:href="#DejaVuSans-20"/>
      <use x="1185.730469" xlink:href="#DejaVuSans-3d"/>
      <use x="1269.519531" xlink:href="#DejaVuSans-20"/>
      <use x="1301.306641" xlink:href="#DejaVuSans-32"/>
      <use x="1364.929688" xlink:href="#DejaVuSans-32"/>
      <use x="1428.552734" xlink:href="#DejaVuSans-2e"/>
      <use x="1460.339844" xlink:href="#DejaVuSans-30"/>
     </g>
    </g>
   </g>
  </g>
  <g id="text_28">
   <!-- active_cone Voltage trace -->
   <g transform="translate(121.7175 17.837812)scale(0.14 -0.14)">
    <defs>
     <path d="M 2106 1575 
Q 1756 1575 1579 1456 
Q 1403 1338 1403 1106 
Q 1403 894 1545 773 
Q 1688 653 1941 653 
Q 2256 653 2472 879 
Q 2688 1106 2688 1447 
L 2688 1575 
L 2106 1575 
z
M 3816 1997 
L 3816 0 
L 2688 0 
L 2688 519 
Q 2463 200 2181 54 
Q 1900 -91 1497 -91 
Q 953 -91 614 226 
Q 275 544 275 1050 
Q 275 1666 698 1953 
Q 1122 2241 2028 2241 
L 2688 2241 
L 2688 2328 
Q 2688 2594 2478 2717 
Q 2269 2841 1825 2841 
Q 1466 2841 1156 2769 
Q 847 2697 581 2553 
L 581 3406 
Q 941 3494 1303 3539 
Q 1666 3584 2028 3584 
Q 2975 3584 3395 3211 
Q 3816 2838 3816 1997 
z
" id="DejaVuSans-Bold-61" transform="scale(0.015625)"/>
     <path d="M 3366 3391 
L 3366 2478 
Q 3138 2634 2908 2709 
Q 2678 2784 2431 2784 
Q 1963 2784 1702 2511 
Q 1441 2238 1441 1747 
Q 1441 1256 1702 982 
Q 1963 709 2431 709 
Q 2694 709 2930 787 
Q 3166 866 3366 1019 
L 3366 103 
Q 3103 6 2833 -42 
Q 2563 -91 2291 -91 
Q 1344 -91 809 395 
Q 275 881 275 1747 
Q 275 2613 809 3098 
Q 1344 3584 2291 3584 
Q 2566 3584 2833 3536 
Q 3100 3488 3366 3391 
z
" id="DejaVuSans-Bold-63" transform="scale(0.015625)"/>
     <path d="M 1759 4494 
L 1759 3500 
L 2913 3500 
L 2913 2700 
L 1759 2700 
L 1759 1216 
Q 1759 972 1856 886 
Q 1953 800 2241 800 
L 2816 800 
L 2816 0 
L 1856 0 
Q 1194 0 917 276 
Q 641 553 641 1216 
L 641 2700 
L 84 2700 
L 84 3500 
L 641 3500 
L 641 4494 
L 1759 4494 
z
" id="DejaVuSans-Bold-74" transform="scale(0.015625)"/>
     <path d="M 538 3500 
L 1656 3500 
L 1656 0 
L 538 0 
L 538 3500 
z
M 538 4863 
L 1656 4863 
L 1656 3950 
L 538 3950 
L 538 4863 
z
" id="DejaVuSans-Bold-69" transform="scale(0.015625)"/>
     <path d="M 97 3500 
L 1216 3500 
L 2088 1081 
L 2956 3500 
L 4078 3500 
L 2700 0 
L 1472 0 
L 97 3500 
z
" id="DejaVuSans-Bold-76" transform="scale(0.015625)"/>
     <path d="M 4031 1759 
L 4031 1441 
L 1416 1441 
Q 1456 1047 1700 850 
Q 1944 653 2381 653 
Q 2734 653 3104 758 
Q 3475 863 3866 1075 
L 3866 213 
Q 3469 63 3072 -14 
Q 2675 -91 2278 -91 
Q 1328 -91 801 392 
Q 275 875 275 1747 
Q 275 2603 792 3093 
Q 1309 3584 2216 3584 
Q 3041 3584 3536 3087 
Q 4031 2591 4031 1759 
z
M 2881 2131 
Q 2881 2450 2695 2645 
Q 2509 2841 2209 2841 
Q 1884 2841 1681 2658 
Q 1478 2475 1428 2131 
L 2881 2131 
z
" id="DejaVuSans-Bold-65" transform="scale(0.015625)"/>
     <path d="M 3200 -916 
L 3200 -1509 
L 0 -1509 
L 0 -916 
L 3200 -916 
z
" id="DejaVuSans-Bold-5f" transform="scale(0.015625)"/>
     <path d="M 2203 2784 
Q 1831 2784 1636 2517 
Q 1441 2250 1441 1747 
Q 1441 1244 1636 976 
Q 1831 709 2203 709 
Q 2569 709 2762 976 
Q 2956 1244 2956 1747 
Q 2956 2250 2762 2517 
Q 2569 2784 2203 2784 
z
M 2203 3584 
Q 3106 3584 3614 3096 
Q 4122 2609 4122 1747 
Q 4122 884 3614 396 
Q 3106 -91 2203 -91 
Q 1297 -91 786 396 
Q 275 884 275 1747 
Q 275 2609 786 3096 
Q 1297 3584 2203 3584 
z
" id="DejaVuSans-Bold-6f" transform="scale(0.015625)"/>
     <path d="M 4056 2131 
L 4056 0 
L 2931 0 
L 2931 347 
L 2931 1631 
Q 2931 2084 2911 2256 
Q 2891 2428 2841 2509 
Q 2775 2619 2662 2680 
Q 2550 2741 2406 2741 
Q 2056 2741 1856 2470 
Q 1656 2200 1656 1722 
L 1656 0 
L 538 0 
L 538 3500 
L 1656 3500 
L 1656 2988 
Q 1909 3294 2193 3439 
Q 2478 3584 2822 3584 
Q 3428 3584 3742 3212 
Q 4056 2841 4056 2131 
z
" id="DejaVuSans-Bold-6e" transform="scale(0.015625)"/>
     <path id="DejaVuSans-Bold-20" transform="scale(0.015625)"/>
     <path d="M 31 4666 
L 1241 4666 
L 2478 1222 
L 3713 4666 
L 4922 4666 
L 3194 0 
L 1759 0 
L 31 4666 
z
" id="DejaVuSans-Bold-56" transform="scale(0.015625)"/>
     <path d="M 538 4863 
L 1656 4863 
L 1656 0 
L 538 0 
L 538 4863 
z
" id="DejaVuSans-Bold-6c" transform="scale(0.015625)"/>
     <path d="M 2919 594 
Q 2688 288 2409 144 
Q 2131 0 1766 0 
Q 1125 0 706 504 
Q 288 1009 288 1791 
Q 288 2575 706 3076 
Q 1125 3578 1766 3578 
Q 2131 3578 2409 3434 
Q 2688 3291 2919 2981 
L 2919 3500 
L 4044 3500 
L 4044 353 
Q 4044 -491 3511 -936 
Q 2978 -1381 1966 -1381 
Q 1638 -1381 1331 -1331 
Q 1025 -1281 716 -1178 
L 716 -306 
Q 1009 -475 1290 -558 
Q 1572 -641 1856 -641 
Q 2406 -641 2662 -400 
Q 2919 -159 2919 353 
L 2919 594 
z
M 2181 2772 
Q 1834 2772 1640 2515 
Q 1447 2259 1447 1791 
Q 1447 1309 1634 1061 
Q 1822 813 2181 813 
Q 2531 813 2725 1069 
Q 2919 1325 2919 1791 
Q 2919 2259 2725 2515 
Q 2531 2772 2181 2772 
z
" id="DejaVuSans-Bold-67" transform="scale(0.015625)"/>
     <path d="M 3138 2547 
Q 2991 2616 2845 2648 
Q 2700 2681 2553 2681 
Q 2122 2681 1889 2404 
Q 1656 2128 1656 1613 
L 1656 0 
L 538 0 
L 538 3500 
L 1656 3500 
L 1656 2925 
Q 1872 3269 2151 3426 
Q 2431 3584 2822 3584 
Q 2878 3584 2943 3579 
Q 3009 3575 3134 3559 
L 3138 2547 
z
" id="DejaVuSans-Bold-72" transform="scale(0.015625)"/>
    </defs>
    <use xlink:href="#DejaVuSans-Bold-61"/>
    <use x="67.480469" xlink:href="#DejaVuSans-Bold-63"/>
    <use x="126.757812" xlink:href="#DejaVuSans-Bold-74"/>
    <use x="174.560547" xlink:href="#DejaVuSans-Bold-69"/>
    <use x="208.837891" xlink:href="#DejaVuSans-Bold-76"/>
    <use x="274.023438" xlink:href="#DejaVuSans-Bold-65"/>
    <use x="341.845703" xlink:href="#DejaVuSans-Bold-5f"/>
    <use x="391.845703" xlink:href="#DejaVuSans-Bold-63"/>
    <use x="451.123047" xlink:href="#DejaVuSans-Bold-6f"/>
    <use x="519.824219" xlink:href="#DejaVuSans-Bold-6e"/>
    <use x="591.015625" xlink:href="#DejaVuSans-Bold-65"/>
    <use x="658.837891" xlink:href="#DejaVuSans-Bold-20"/>
    <use x="693.652344" xlink:href="#DejaVuSans-Bold-56"/>
    <use x="765.544922" xlink:href="#DejaVuSans-Bold-6f"/>
    <use x="834.246094" xlink:href="#DejaVuSans-Bold-6c"/>
    <use x="868.523438" xlink:href="#DejaVuSans-Bold-74"/>
    <use x="916.326172" xlink:href="#DejaVuSans-Bold-61"/>
    <use x="983.806641" xlink:href="#DejaVuSans-Bold-67"/>
    <use x="1055.388672" xlink:href="#DejaVuSans-Bold-65"/>
    <use x="1123.210938" xlink:href="#DejaVuSans-Bold-20"/>
    <use x="1158.025391" xlink:href="#DejaVuSans-Bold-74"/>
    <use x="1205.828125" xlink:href="#DejaVuSans-Bold-72"/>
    <use x="1255.144531" xlink:href="#DejaVuSans-Bold-61"/>
    <use x="1322.625" xlink:href="#DejaVuSans-Bold-63"/>
    <use x="1381.902344" xlink:href="#DejaVuSans-Bold-65"/>
   </g>
  </g>
 </g>
 <defs>
  <clipPath id="p99473e4917">
   <rect height="326.117647" width="446.4" x="7.2" y="151.2"/>
  </clipPath>
  <clipPath id="p05cda532fc">
   <rect height="326.117647" width="446.4" x="7.2" y="542.541176"/>
  </clipPath>
  <clipPath id="pf887542ec0">
   <rect height="326.117647" width="446.4" x="7.2" y="933.882353"/>
  </clipPath>
 </defs>
</svg>
